<?xml version="1.0" encoding="UTF-8" standalone="no"?>
<!DOCTYPE svg PUBLIC "-//W3C//DTD SVG 1.1//EN" "http://www.w3.org/Graphics/SVG/1.1/DTD/svg11.dtd">
<svg width="1000.00" height="1000.00" viewBox="0.00 0.00 1000.00 1000.00" xmlns="http://www.w3.org/2000/svg" xmlns:xlink="http://www.w3.org/1999/xlink">
<g stroke-linecap="round" id="Layer_2">
<path d="M782.23,565.17 C780.38,563.18 779.38,562.18 778.15,561.14 C773.92,557.59 764.75,551.02 758.30,547.11 C752.41,543.59 738.97,536.97 732.43,533.91 C725.61,530.80 712.84,526.11 706.66,524.04 C700.49,522.15 685.28,518.11 681.34,517.28 C674.41,515.82 661.21,513.96 654.70,513.55 C647.72,513.12 633.61,513.61 626.52,514.89 C622.60,515.61 618.18,516.98 614.18,518.67 C611.28,519.93 606.88,523.42 605.18,526.41 C603.30,529.86 601.84,536.17 601.57,539.56 C601.13,545.64 602.31,558.43 603.67,564.95 C604.94,570.94 609.49,583.96 613.18,591.54 C617.61,600.60 633.29,625.75 644.03,641.01 C648.72,647.35 656.99,658.05 662.50,664.64 C668.57,671.62 677.25,680.51 681.12,684.14 C685.69,688.37 697.26,697.53 702.41,701.00 C708.82,705.24 719.40,711.36 725.75,714.42 C732.25,717.53 746.45,722.90 753.35,725.05 C758.42,726.62 772.14,729.33 777.42,729.87 C783.15,730.43 795.15,730.29 801.05,729.38 C804.84,728.79 812.25,726.74 815.64,725.36 C818.96,723.97 825.14,720.48 827.88,718.45 C830.59,716.41 835.23,711.83 837.23,709.27 C839.15,706.78 842.22,701.60 843.51,698.56 C844.98,695.04 846.25,690.79 846.89,686.77 C848.26,677.90 847.50,664.27 846.37,657.37 C845.59,652.64 842.62,640.75 840.35,633.84 C838.43,628.16 833.80,617.55 830.47,611.70 C827.73,606.91 820.79,596.90 816.66,591.90 C812.99,587.50 805.13,579.63 798.71,574.15 C789.17,566.23 767.29,551.58 764.49,549.89 C763.50,549.30 759.39,547.07 758.62,546.66" fill="none" stroke="rgb(56, 56, 56)" stroke-width="25.00" stroke-opacity="1.00" stroke-linejoin="round"/>
<path d="M217.77,565.17 C219.62,563.18 220.62,562.18 221.85,561.14 C226.08,557.59 235.25,551.02 241.70,547.11 C247.59,543.59 261.03,536.97 267.57,533.91 C274.39,530.80 287.16,526.11 293.34,524.04 C299.51,522.15 314.72,518.11 318.66,517.28 C325.59,515.82 338.79,513.96 345.30,513.55 C352.28,513.12 366.39,513.61 373.48,514.89 C377.40,515.61 381.82,516.98 385.82,518.67 C388.72,519.93 393.12,523.42 394.82,526.41 C396.70,529.86 398.16,536.17 398.43,539.56 C398.87,545.64 397.69,558.43 396.33,564.95 C395.06,570.94 390.51,583.96 386.82,591.54 C382.39,600.60 366.71,625.75 355.97,641.01 C351.28,647.35 343.01,658.05 337.50,664.64 C331.43,671.62 322.75,680.51 318.88,684.14 C314.31,688.37 302.74,697.53 297.59,701.00 C291.18,705.24 280.60,711.36 274.25,714.42 C267.75,717.53 253.55,722.90 246.65,725.05 C241.58,726.62 227.86,729.33 222.58,729.87 C216.85,730.43 204.85,730.29 198.95,729.38 C195.16,728.79 187.75,726.74 184.36,725.36 C181.04,723.97 174.86,720.48 172.12,718.45 C169.41,716.41 164.77,711.83 162.77,709.27 C160.85,706.78 157.78,701.60 156.49,698.56 C155.02,695.04 153.75,690.79 153.11,686.77 C151.74,677.90 152.50,664.27 153.63,657.37 C154.41,652.64 157.38,640.75 159.65,633.84 C161.57,628.16 166.20,617.55 169.53,611.70 C172.27,606.91 179.21,596.90 183.34,591.90 C187.01,587.50 194.87,579.63 201.29,574.15 C210.83,566.23 232.71,551.58 235.51,549.89 C236.50,549.30 240.61,547.07 241.38,546.66" fill="none" stroke="rgb(56, 56, 56)" stroke-width="25.00" stroke-opacity="1.00" stroke-linejoin="round"/>
<path d="M660.47,514.59 C660.47,514.59 660.47,514.48 660.47,514.48 C660.56,515.92 660.65,516.81 660.91,518.70 C663.10,533.77 667.87,564.21 670.44,579.57 C673.29,594.73 679.13,624.58 682.11,639.28 C691.49,681.93 697.41,697.33 697.43,697.38 C697.52,697.65 697.69,698.18 697.92,698.97" fill="none" stroke="rgb(56, 56, 56)" stroke-width="25.00" stroke-opacity="1.00" stroke-linejoin="round"/>
<path d="M339.53,514.59 C339.53,514.59 339.53,514.48 339.53,514.48 C339.44,515.92 339.35,516.81 339.09,518.70 C336.90,533.77 332.13,564.21 329.56,579.57 C326.71,594.73 320.87,624.58 317.89,639.28 C308.51,681.93 302.59,697.33 302.57,697.38 C302.48,697.65 302.31,698.18 302.08,698.97" fill="none" stroke="rgb(56, 56, 56)" stroke-width="25.00" stroke-opacity="1.00" stroke-linejoin="round"/>
<path d="M715.40,530.31 C715.40,530.31 715.32,530.16 715.32,530.16 C715.51,531.71 715.83,534.27 715.95,535.29 C717.39,547.63 731.09,624.99 736.63,654.94 C739.47,670.85 745.06,702.22 747.82,717.68 C748.53,721.64 749.52,725.99 749.50,725.87" fill="none" stroke="rgb(56, 56, 56)" stroke-width="25.00" stroke-opacity="1.00" stroke-linejoin="round"/>
<path d="M284.60,530.31 C284.60,530.31 284.68,530.16 284.68,530.16 C284.49,531.71 284.17,534.27 284.05,535.29 C282.61,547.63 268.91,624.99 263.37,654.94 C260.53,670.85 254.94,702.22 252.18,717.68 C251.47,721.64 250.48,725.99 250.50,725.87" fill="none" stroke="rgb(56, 56, 56)" stroke-width="25.00" stroke-opacity="1.00" stroke-linejoin="round"/>
<path d="M763.95,553.58 C763.95,553.58 763.83,552.49 763.83,552.49 C765.32,566.77 768.56,596.76 770.31,612.47 C771.90,624.97 777.25,657.43 780.13,673.94 C782.87,689.47 789.47,728.28 790.15,730.42 C790.36,731.07 790.59,731.71 790.84,732.33 C790.96,732.61 791.25,733.26 791.70,734.28" fill="none" stroke="rgb(56, 56, 56)" stroke-width="25.00" stroke-opacity="1.00" stroke-linejoin="round"/>
<path d="M236.05,553.58 C236.05,553.58 236.17,552.49 236.17,552.49 C234.68,566.77 231.44,596.76 229.69,612.47 C228.10,624.97 222.75,657.43 219.87,673.94 C217.13,689.47 210.53,728.28 209.85,730.42 C209.64,731.07 209.41,731.71 209.16,732.33 C209.04,732.61 208.75,733.26 208.30,734.28" fill="none" stroke="rgb(56, 56, 56)" stroke-width="25.00" stroke-opacity="1.00" stroke-linejoin="round"/>
<path d="M605.19,552.85 C606.75,552.12 608.05,551.57 609.30,551.16 C614.31,549.55 630.16,548.38 637.36,549.04 C641.70,549.45 660.48,552.84 663.37,553.60 C669.81,555.32 713.00,569.13 721.86,572.38 C728.35,574.93 741.80,580.45 748.84,583.69 C759.10,588.65 767.58,593.00 774.15,597.11 C780.91,601.44 789.26,607.82 796.41,614.06 C801.52,618.74 812.82,631.35 815.54,634.79 C818.91,639.06 827.01,651.45 830.13,657.39 C839.62,675.51 842.75,684.51 842.74,684.78" fill="none" stroke="rgb(56, 56, 56)" stroke-width="25.00" stroke-opacity="1.00" stroke-linejoin="round"/>
<path d="M394.81,552.85 C393.25,552.12 391.95,551.57 390.70,551.16 C385.69,549.55 369.84,548.38 362.64,549.04 C358.30,549.45 339.52,552.84 336.63,553.60 C330.19,555.32 287.00,569.13 278.14,572.38 C271.65,574.93 258.20,580.45 251.16,583.69 C240.90,588.65 232.42,593.00 225.85,597.11 C219.09,601.44 210.74,607.82 203.59,614.06 C198.48,618.74 187.18,631.35 184.46,634.79 C181.09,639.06 172.99,651.45 169.87,657.39 C160.38,675.51 157.25,684.51 157.26,684.78" fill="none" stroke="rgb(56, 56, 56)" stroke-width="25.00" stroke-opacity="1.00" stroke-linejoin="round"/>
<path d="M622.93,604.13 C624.17,604.31 625.09,604.38 631.39,604.64 C638.72,604.83 652.41,605.13 659.06,605.83 C665.30,606.50 680.34,609.43 686.96,611.27 C696.26,613.94 707.17,617.96 715.27,621.56 C721.82,624.58 737.31,632.87 741.13,635.16 C747.23,638.83 759.41,647.18 764.88,651.59 C770.48,656.12 778.81,663.73 786.13,671.10 C789.24,674.31 800.49,687.24 803.43,691.14 C812.52,703.26 820.25,718.51 820.70,719.64 C820.79,719.86 820.94,720.25 821.15,720.84" fill="none" stroke="rgb(56, 56, 56)" stroke-width="25.00" stroke-opacity="1.00" stroke-linejoin="round"/>
<path d="M377.07,604.13 C375.83,604.31 374.91,604.38 368.61,604.64 C361.28,604.83 347.59,605.13 340.94,605.83 C334.70,606.50 319.66,609.43 313.04,611.27 C303.74,613.94 292.83,617.96 284.73,621.56 C278.18,624.58 262.69,632.87 258.87,635.16 C252.77,638.83 240.59,647.18 235.12,651.59 C229.52,656.12 221.19,663.73 213.87,671.10 C210.76,674.31 199.51,687.24 196.57,691.14 C187.48,703.26 179.75,718.51 179.30,719.64 C179.21,719.86 179.06,720.25 178.85,720.84" fill="none" stroke="rgb(56, 56, 56)" stroke-width="25.00" stroke-opacity="1.00" stroke-linejoin="round"/>
<path d="M280.34,774.51 C280.34,774.51 280.30,774.44 280.30,774.44 C280.92,775.28 282.75,777.77 283.20,778.36 C287.22,783.62 296.51,792.81 302.26,797.00 C307.76,800.96 321.92,807.17 326.14,807.99 C334.86,809.59 347.77,810.21 355.50,809.87 C360.48,809.63 372.88,807.99 382.30,806.20 C389.30,804.71 405.71,800.51 409.91,799.21 C419.00,796.29 426.75,793.41 435.20,789.83 C441.72,786.96 454.33,780.13 460.65,775.85 C464.89,772.97 477.31,762.95 480.24,760.19 C483.03,757.54 497.12,742.45 499.85,738.93 C500.76,737.75 501.08,737.27 501.40,736.66" fill="none" stroke="rgb(56, 56, 56)" stroke-width="25.00" stroke-opacity="1.00" stroke-linejoin="round"/>
<path d="M719.66,774.51 C719.66,774.51 719.70,774.44 719.70,774.44 C719.08,775.28 717.25,777.77 716.80,778.36 C712.78,783.62 703.49,792.81 697.74,797.00 C692.24,800.96 678.08,807.17 673.86,807.99 C665.14,809.59 652.23,810.21 644.50,809.87 C639.52,809.63 627.12,807.99 617.70,806.20 C610.70,804.71 594.29,800.51 590.09,799.21 C581.00,796.29 573.25,793.41 564.80,789.83 C558.28,786.96 545.67,780.13 539.35,775.85 C535.11,772.97 522.69,762.95 519.76,760.19 C516.97,757.54 502.88,742.45 500.15,738.93 C499.24,737.75 498.92,737.27 498.60,736.66" fill="none" stroke="rgb(56, 56, 56)" stroke-width="25.00" stroke-opacity="1.00" stroke-linejoin="round"/>
<path d="M420.60,792.25 C420.60,792.25 420.45,792.29 420.45,792.29 C420.08,793.21 419.89,794.06 419.64,796.13 C418.75,803.65 420.11,817.98 421.00,825.61 C421.86,832.51 424.08,843.23 425.58,848.19 C427.39,854.12 431.97,865.33 434.94,870.64 C437.94,875.96 445.37,885.81 449.61,889.67 C454.18,893.79 464.52,899.50 471.33,901.72 C477.85,903.82 491.50,905.72 500.38,906.13 C506.44,906.40 518.21,906.32 521.47,906.16 C522.95,906.08 525.82,905.85 527.62,905.70" fill="none" stroke="rgb(56, 56, 56)" stroke-width="25.00" stroke-opacity="1.00" stroke-linejoin="round"/>
<path d="M579.40,792.25 C579.40,792.25 579.55,792.29 579.55,792.29 C579.92,793.21 580.11,794.06 580.36,796.13 C581.25,803.65 579.89,817.98 579.00,825.61 C578.14,832.51 575.92,843.23 574.42,848.19 C572.61,854.12 568.03,865.33 565.06,870.64 C562.06,875.96 554.63,885.81 550.39,889.67 C545.82,893.79 535.48,899.50 528.67,901.72 C522.15,903.82 508.50,905.72 499.62,906.13 C493.56,906.40 481.79,906.32 478.53,906.16 C477.05,906.08 474.18,905.85 472.38,905.70" fill="none" stroke="rgb(56, 56, 56)" stroke-width="25.00" stroke-opacity="1.00" stroke-linejoin="round"/>
<path d="M501.34,865.16 C500.99,864.17 500.75,863.47 500.63,863.05 C498.86,856.79 496.81,843.81 496.08,835.05 C495.59,827.93 495.49,812.40 495.87,806.80 C496.43,799.58 497.72,792.02 498.53,789.39 C498.89,788.20 499.44,786.94 500.10,785.60 C500.43,786.49 501.27,788.81 501.46,789.39 C502.82,793.71 504.26,806.79 504.46,813.32 C504.65,820.51 504.08,834.41 503.35,841.52 C502.60,848.67 499.55,862.41 499.37,863.05 C499.25,863.47 499.01,864.17 498.66,865.16" fill="none" stroke="rgb(56, 56, 56)" stroke-width="25.00" stroke-opacity="1.00" stroke-linejoin="round"/>
<path d="M501.19,921.21 C501.19,921.21 500.84,921.02 500.84,921.02 C502.87,922.89 505.94,925.17 509.32,926.86 C513.64,929.00 528.02,934.09 532.97,935.28 C539.57,936.83 549.56,938.33 559.13,939.28 C566.03,939.82 580.00,940.18 587.21,940.17 C592.60,940.08 610.44,939.06 618.51,938.50 C636.83,936.64 661.07,933.13 679.82,929.56 C687.47,927.84 702.68,924.24 710.05,922.27 C727.64,917.16 753.60,907.38 766.59,901.00 C770.24,899.19 783.84,891.06 788.97,887.30 C794.38,883.32 804.08,874.55 807.77,870.32 C813.03,864.14 817.76,857.58 822.01,849.84 C825.26,843.91 831.12,828.31 833.21,821.25 C835.10,814.82 837.62,801.66 838.63,792.66 C839.27,786.65 839.93,772.59 839.72,764.71 C839.58,760.56 838.00,743.88 836.61,737.55 C836.18,735.64 833.11,724.03 832.70,722.85 C831.46,719.30 830.10,717.00 829.94,716.70" fill="none" stroke="rgb(56, 56, 56)" stroke-width="25.00" stroke-opacity="1.00" stroke-linejoin="round"/>
<path d="M498.81,921.21 C498.81,921.21 499.16,921.02 499.16,921.02 C497.13,922.89 494.06,925.17 490.68,926.86 C486.36,929.00 471.98,934.09 467.03,935.28 C460.43,936.83 450.44,938.33 440.87,939.28 C433.97,939.82 420.00,940.18 412.79,940.17 C407.40,940.08 389.56,939.06 381.49,938.50 C363.17,936.64 338.93,933.13 320.18,929.56 C312.53,927.84 297.32,924.24 289.95,922.27 C272.36,917.16 246.40,907.38 233.41,901.00 C229.76,899.19 216.16,891.06 211.03,887.30 C205.62,883.32 195.92,874.55 192.23,870.32 C186.97,864.14 182.24,857.58 177.99,849.84 C174.74,843.91 168.88,828.31 166.79,821.25 C164.90,814.82 162.38,801.66 161.37,792.66 C160.73,786.65 160.07,772.59 160.28,764.71 C160.42,760.56 162.00,743.88 163.39,737.55 C163.82,735.64 166.89,724.03 167.30,722.85 C168.54,719.30 169.90,717.00 170.06,716.70" fill="none" stroke="rgb(56, 56, 56)" stroke-width="25.00" stroke-opacity="1.00" stroke-linejoin="round"/>
<path d="M393.04,521.65 C394.06,520.82 395.24,519.98 396.96,518.93 C403.46,514.96 415.32,509.62 422.64,507.52 C432.74,504.63 473.12,497.80 477.92,497.20 C481.13,496.81 500.69,495.15 508.93,494.49 C516.59,493.98 525.36,494.20 526.88,494.33" fill="none" stroke="rgb(56, 56, 56)" stroke-width="25.00" stroke-opacity="1.00" stroke-linejoin="round"/>
<path d="M606.96,521.65 C605.94,520.82 604.76,519.98 603.04,518.93 C596.54,514.96 584.68,509.62 577.36,507.52 C567.26,504.63 526.88,497.80 522.08,497.20 C518.87,496.81 499.31,495.15 491.07,494.49 C483.41,493.98 474.64,494.20 473.12,494.33" fill="none" stroke="rgb(56, 56, 56)" stroke-width="25.00" stroke-opacity="1.00" stroke-linejoin="round"/>
<path d="M625.82,383.14 C625.82,383.14 625.92,382.95 625.92,382.95 C625.38,383.46 624.93,384.07 623.78,385.94 C614.01,401.86 601.64,424.58 594.22,438.34 C586.15,452.99 567.73,486.11 566.05,489.57 C563.98,493.86 561.11,499.05 559.24,501.93 C558.98,502.32 558.75,502.61 558.75,502.60" fill="none" stroke="rgb(56, 56, 56)" stroke-width="25.00" stroke-opacity="1.00" stroke-linejoin="round"/>
<path d="M374.18,383.14 C374.18,383.14 374.08,382.95 374.08,382.95 C374.62,383.46 375.07,384.07 376.22,385.94 C385.99,401.86 398.36,424.58 405.78,438.34 C413.85,452.99 432.27,486.11 433.95,489.57 C436.02,493.86 438.89,499.05 440.76,501.93 C441.02,502.32 441.25,502.61 441.25,502.60" fill="none" stroke="rgb(56, 56, 56)" stroke-width="25.00" stroke-opacity="1.00" stroke-linejoin="round"/>
<path d="M655.68,396.39 C655.43,396.50 654.47,397.80 652.91,400.17 C644.87,412.82 626.49,441.63 622.33,448.48 C615.04,461.18 599.57,487.88 591.40,501.88 C589.74,504.76 587.38,509.48 587.17,510.47 C587.11,510.77 587.05,511.37 586.99,512.29" fill="none" stroke="rgb(56, 56, 56)" stroke-width="25.00" stroke-opacity="1.00" stroke-linejoin="round"/>
<path d="M344.32,396.39 C344.57,396.50 345.53,397.80 347.09,400.17 C355.13,412.82 373.51,441.63 377.67,448.48 C384.96,461.18 400.43,487.88 408.60,501.88 C410.26,504.76 412.62,509.48 412.83,510.47 C412.89,510.77 412.95,511.37 413.01,512.29" fill="none" stroke="rgb(56, 56, 56)" stroke-width="25.00" stroke-opacity="1.00" stroke-linejoin="round"/>
<path d="M797.33,113.70 C796.47,114.20 795.91,114.54 795.63,114.72 C793.49,116.12 784.77,124.04 779.41,129.28 C773.51,135.21 765.74,143.78 759.25,151.62 C752.21,160.46 732.87,187.37 725.05,199.15 C717.34,211.27 702.36,236.06 695.31,248.40 C687.25,263.46 677.38,284.09 670.76,299.93 C667.63,307.83 657.41,338.96 655.74,344.96 C654.85,348.17 654.11,351.96 654.12,352.22 C654.63,351.24 665.96,343.75 669.94,340.05 C677.61,332.86 701.43,305.90 711.33,294.34 C717.31,286.95 735.71,262.04 742.74,250.80 C748.29,241.52 760.69,217.97 768.00,201.71 C776.24,182.58 787.68,151.77 790.52,142.62 C791.95,137.89 796.50,120.22 796.57,119.85 C796.87,118.21 797.12,115.89 797.06,115.77" fill="none" stroke="rgb(56, 56, 56)" stroke-width="25.00" stroke-opacity="1.00" stroke-linejoin="round"/>
<path d="M202.67,113.70 C203.95,114.45 206.51,116.12 212.08,121.13 C222.09,130.37 238.68,148.65 250.13,163.66 C259.18,176.03 274.95,199.15 282.66,211.27 C290.15,223.66 304.69,248.40 311.23,260.64 C318.36,274.66 330.58,303.14 334.36,313.78 C336.96,321.51 342.59,338.96 344.26,344.96 C345.15,348.17 345.89,351.96 345.88,352.22 C345.37,351.24 334.04,343.75 330.06,340.05 C322.39,332.86 298.57,305.90 288.67,294.34 C282.69,286.95 264.29,262.04 257.26,250.80 C251.71,241.52 239.31,217.97 232.00,201.71 C223.76,182.58 212.32,151.77 209.48,142.62 C208.05,137.89 203.50,120.22 203.43,119.85 C203.13,118.21 202.88,115.89 202.94,115.77" fill="none" stroke="rgb(56, 56, 56)" stroke-width="25.00" stroke-opacity="1.00" stroke-linejoin="round"/>
<path d="M689.69,367.59 C689.85,367.41 690.04,367.15 690.24,366.81 C692.26,363.38 698.82,353.32 704.87,342.75 C708.79,335.86 715.53,324.16 719.94,317.58 C725.85,309.06 747.20,282.14 757.64,269.78 C767.66,258.52 787.55,236.55 796.16,227.72 C801.91,222.03 813.29,211.10 818.91,205.86 C823.14,202.08 835.73,191.68 841.18,187.51 C846.54,183.58 858.20,175.52 864.07,171.68 C869.23,168.40 880.01,162.72 880.51,162.49 C880.88,162.32 881.47,162.08 882.29,161.78" fill="none" stroke="rgb(56, 56, 56)" stroke-width="25.00" stroke-opacity="1.00" stroke-linejoin="round"/>
<path d="M310.31,367.59 C310.15,367.41 309.96,367.15 309.76,366.81 C307.74,363.38 301.18,353.32 295.13,342.75 C291.21,335.86 284.47,324.16 280.06,317.58 C274.15,309.06 252.80,282.14 242.36,269.78 C232.34,258.52 212.45,236.55 203.84,227.72 C198.09,222.03 186.71,211.10 181.09,205.86 C176.86,202.08 164.27,191.68 158.82,187.51 C153.46,183.58 141.80,175.52 135.93,171.68 C130.77,168.40 119.99,162.72 119.49,162.49 C119.12,162.32 118.53,162.08 117.71,161.78" fill="none" stroke="rgb(56, 56, 56)" stroke-width="25.00" stroke-opacity="1.00" stroke-linejoin="round"/>
<path d="M621.02,331.06 C622.81,329.17 625.49,325.67 628.28,321.32 C630.25,318.22 650.05,282.68 657.82,269.77 C665.27,256.89 678.15,233.14 686.22,216.27 C692.45,202.59 704.07,174.96 709.25,161.03 C714.34,146.49 723.77,113.22 726.44,102.14 C728.00,95.56 730.32,86.09 730.32,86.17" fill="none" stroke="rgb(56, 56, 56)" stroke-width="25.00" stroke-opacity="1.00" stroke-linejoin="round"/>
<path d="M378.98,331.06 C377.19,329.17 374.51,325.67 371.72,321.32 C369.75,318.22 349.95,282.68 342.18,269.77 C334.73,256.89 321.85,233.14 313.78,216.27 C307.55,202.59 295.93,174.96 290.75,161.03 C285.66,146.49 276.23,113.22 273.56,102.14 C272.00,95.56 269.68,86.09 269.68,86.17" fill="none" stroke="rgb(56, 56, 56)" stroke-width="25.00" stroke-opacity="1.00" stroke-linejoin="round"/>
<path d="M692.52,366.39 C697.32,365.56 707.39,361.80 712.53,358.74 C720.66,353.83 728.79,348.28 737.91,341.38 C754.02,328.68 771.93,312.83 781.52,303.75 C793.47,292.02 812.82,269.77 819.24,261.54 C830.17,246.99 844.16,226.78 851.40,214.94 C859.81,200.52 871.05,178.01 877.35,165.03 C877.71,164.26 878.90,161.55 879.06,161.16 C879.13,160.98 879.23,160.73 879.35,160.41" fill="none" stroke="rgb(56, 56, 56)" stroke-width="25.00" stroke-opacity="1.00" stroke-linejoin="round"/>
<path d="M307.48,366.39 C302.68,365.56 292.61,361.80 287.47,358.74 C279.34,353.83 271.21,348.28 262.09,341.38 C245.98,328.68 228.07,312.83 218.48,303.75 C206.53,292.02 187.18,269.77 180.76,261.54 C169.83,246.99 155.84,226.78 148.60,214.94 C140.19,200.52 128.95,178.01 122.65,165.03 C122.29,164.26 121.10,161.55 120.94,161.16 C120.87,160.98 120.77,160.73 120.65,160.41" fill="none" stroke="rgb(56, 56, 56)" stroke-width="25.00" stroke-opacity="1.00" stroke-linejoin="round"/>
<path d="M623.11,329.01 C622.82,328.92 622.61,328.80 622.48,328.63 C621.03,326.67 618.76,313.95 618.66,306.91 C618.57,299.72 620.30,284.25 621.39,278.28 C623.21,269.09 625.96,257.82 627.67,251.55 C631.43,238.93 640.87,212.33 645.56,201.10 C648.28,195.07 654.46,181.84 657.94,174.91 C662.85,165.69 667.25,158.23 672.62,149.96 C674.58,147.04 684.94,132.79 689.51,127.51 C694.95,121.36 703.33,111.99 709.18,106.03 C712.98,102.22 728.14,89.22 729.12,88.42 C729.54,88.09 730.45,87.36 731.87,86.24" fill="none" stroke="rgb(56, 56, 56)" stroke-width="25.00" stroke-opacity="1.00" stroke-linejoin="round"/>
<path d="M376.89,329.01 C377.18,328.92 377.39,328.80 377.52,328.63 C378.97,326.67 381.24,313.95 381.34,306.91 C381.43,299.72 379.70,284.25 378.61,278.28 C376.79,269.09 374.04,257.82 372.33,251.55 C368.57,238.93 359.13,212.33 354.44,201.10 C351.72,195.07 345.54,181.84 342.06,174.91 C337.15,165.69 332.75,158.23 327.38,149.96 C325.42,147.04 315.06,132.79 310.49,127.51 C305.05,121.36 296.67,111.99 290.82,106.03 C287.02,102.22 271.86,89.22 270.88,88.42 C270.46,88.09 269.55,87.36 268.13,86.24" fill="none" stroke="rgb(56, 56, 56)" stroke-width="25.00" stroke-opacity="1.00" stroke-linejoin="round"/>
<path d="M657.57,397.89 C657.62,397.97 657.79,398.06 658.09,398.19 C661.02,399.38 666.47,400.44 668.92,400.63 C674.61,401.03 688.22,399.78 695.61,398.32 C701.41,397.16 713.87,393.60 721.21,390.94 C729.32,387.86 743.26,381.47 748.69,378.57 C754.27,375.58 766.46,368.05 774.28,362.64 C785.15,354.75 805.02,337.82 815.64,326.87 C820.27,321.97 829.54,311.67 834.59,305.72 C839.42,299.81 849.60,286.33 852.62,281.97 C863.85,265.13 871.59,251.65 881.13,233.91 C884.95,226.68 891.80,213.55 894.84,207.65 C896.66,203.95 901.18,192.67 902.96,184.36 C905.35,172.76 906.76,156.73 906.75,156.13 C906.74,155.70 906.68,154.76 906.57,153.29" fill="none" stroke="rgb(56, 56, 56)" stroke-width="25.00" stroke-opacity="1.00" stroke-linejoin="round"/>
<path d="M342.43,397.89 C342.38,397.97 342.21,398.06 341.91,398.19 C338.98,399.38 333.53,400.44 331.08,400.63 C325.39,401.03 311.78,399.78 304.39,398.32 C298.59,397.16 286.13,393.60 278.79,390.94 C270.68,387.86 256.74,381.47 251.31,378.57 C245.73,375.58 233.54,368.05 225.72,362.64 C214.85,354.75 194.98,337.82 184.36,326.87 C179.73,321.97 170.46,311.67 165.41,305.72 C160.58,299.81 150.40,286.33 147.38,281.97 C136.15,265.13 128.41,251.65 118.87,233.91 C115.05,226.68 108.20,213.55 105.16,207.65 C103.34,203.95 98.82,192.67 97.04,184.36 C94.65,172.76 93.24,156.73 93.25,156.13 C93.26,155.70 93.32,154.76 93.43,153.29" fill="none" stroke="rgb(56, 56, 56)" stroke-width="25.00" stroke-opacity="1.00" stroke-linejoin="round"/>
<path d="M623.83,383.93 C622.00,383.25 619.87,382.10 618.30,380.82 C615.13,378.21 606.84,365.05 604.02,359.00 C601.43,353.42 596.44,339.95 594.00,330.98 C591.69,322.06 590.01,311.99 589.48,306.73 C588.88,300.67 588.68,287.66 588.96,280.91 C589.30,274.06 590.83,261.12 592.26,253.00 C593.64,245.85 596.98,231.55 598.89,224.40 C601.48,215.58 605.68,203.15 608.34,196.09 C611.15,189.11 617.30,175.24 620.61,168.38 C624.14,161.49 630.62,149.92 634.64,143.45 C640.51,134.31 657.63,111.89 665.48,103.42 C693.41,74.28 709.03,62.60 713.71,59.50" fill="none" stroke="rgb(56, 56, 56)" stroke-width="25.00" stroke-opacity="1.00" stroke-linejoin="round"/>
<path d="M376.17,383.93 C378.00,383.25 380.13,382.10 381.70,380.82 C384.87,378.21 393.16,365.05 395.98,359.00 C398.57,353.42 403.56,339.95 406.00,330.98 C408.31,322.06 409.99,311.99 410.52,306.73 C411.12,300.67 411.32,287.66 411.04,280.91 C410.70,274.06 409.17,261.12 407.74,253.00 C406.36,245.85 403.02,231.55 401.11,224.40 C398.52,215.58 394.32,203.15 391.66,196.09 C388.85,189.11 382.70,175.24 379.39,168.38 C375.86,161.49 369.38,149.92 365.36,143.45 C359.49,134.31 342.37,111.89 334.52,103.42 C306.59,74.28 290.97,62.60 286.29,59.50" fill="none" stroke="rgb(56, 56, 56)" stroke-width="25.00" stroke-opacity="1.00" stroke-linejoin="round"/>
<path d="M708.10,64.61 C708.91,63.77 710.36,62.57 711.59,61.95 C714.10,60.69 719.33,59.25 721.49,59.01 C725.85,58.55 739.44,59.79 746.80,60.51 C753.69,61.32 770.85,63.85 775.24,64.72 C782.18,66.10 797.24,70.34 804.62,72.87 C815.82,76.92 850.47,91.17 857.61,95.22 C862.73,98.14 873.20,105.78 878.58,110.51 C884.29,115.55 894.47,126.25 897.90,130.91 C900.22,134.10 903.93,140.51 905.12,143.39 C906.35,146.42 908.10,152.55 908.50,155.16 C908.70,156.47 908.85,157.68 908.94,158.80 C908.97,159.23 908.98,159.73 908.97,160.28" fill="none" stroke="rgb(56, 56, 56)" stroke-width="25.00" stroke-opacity="1.00" stroke-linejoin="round"/>
<path d="M291.90,64.61 C291.09,63.77 289.64,62.57 288.41,61.95 C285.90,60.69 280.67,59.25 278.51,59.01 C274.15,58.55 260.56,59.79 253.20,60.51 C246.31,61.32 229.15,63.85 224.76,64.72 C217.82,66.10 202.76,70.34 195.38,72.87 C184.18,76.92 149.53,91.17 142.39,95.22 C137.27,98.14 126.80,105.78 121.42,110.51 C115.71,115.55 105.53,126.25 102.10,130.91 C99.78,134.10 96.07,140.51 94.88,143.39 C93.65,146.42 91.90,152.55 91.50,155.16 C91.30,156.47 91.15,157.68 91.06,158.80 C91.03,159.23 91.02,159.73 91.03,160.28" fill="none" stroke="rgb(56, 56, 56)" stroke-width="25.00" stroke-opacity="1.00" stroke-linejoin="round"/>
</g>
</svg>
